<?xml version="1.0" encoding="UTF-8" standalone="no"?>
<!-- Created with Inkscape (http://www.inkscape.org/) -->

<svg
   xmlns:dc="http://purl.org/dc/elements/1.1/"
   xmlns:cc="http://creativecommons.org/ns#"
   xmlns:rdf="http://www.w3.org/1999/02/22-rdf-syntax-ns#"
   xmlns:svg="http://www.w3.org/2000/svg"
   xmlns="http://www.w3.org/2000/svg"
   xmlns:sodipodi="http://sodipodi.sourceforge.net/DTD/sodipodi-0.dtd"
   xmlns:inkscape="http://www.inkscape.org/namespaces/inkscape"
   width="495.62949mm"
   height="175.76093mm"
   viewBox="0 0 1756.1675 622.77493"
   id="svg2"
   version="1.1"
   inkscape:version="0.91 r13725"
   sodipodi:docname="logarithmic.svg">
  <defs
     id="defs4" />
  <sodipodi:namedview
     id="base"
     pagecolor="#ffffff"
     bordercolor="#666666"
     borderopacity="1.0"
     inkscape:pageopacity="0.0"
     inkscape:pageshadow="2"
     inkscape:zoom="0.7"
     inkscape:cx="782.86465"
     inkscape:cy="197.18487"
     inkscape:document-units="px"
     inkscape:current-layer="layer1"
     showgrid="false"
     inkscape:window-width="1920"
     inkscape:window-height="1058"
     inkscape:window-x="1912"
     inkscape:window-y="-8"
     inkscape:window-maximized="1"
     fit-margin-top="10"
     fit-margin-left="10"
     fit-margin-right="10"
     fit-margin-bottom="10" />
  <metadata
     id="metadata7">
    <rdf:RDF>
      <cc:Work
         rdf:about="">
        <dc:format>image/svg+xml</dc:format>
        <dc:type
           rdf:resource="http://purl.org/dc/dcmitype/StillImage" />
        <dc:title></dc:title>
      </cc:Work>
    </rdf:RDF>
  </metadata>
  <g
     inkscape:label="Ebene 1"
     inkscape:groupmode="layer"
     id="layer1"
     transform="translate(130.01711,-186.01996)">
    <path
       style="fill:none;fill-rule:evenodd;stroke:#000000;stroke-width:4.86678982px;stroke-linecap:butt;stroke-linejoin:miter;stroke-opacity:1"
       d="m 0,429.68177 0,0 15,3.3392 15,-39.92357 15,-16.25498 15,16.25498 15,0 15,8.5967 15,12.00578 15,12.69219 15,10.01903 15,6.93989 15,0 15,3.55285 15,3.61064 15,7.40247 15,0 15,-21.50585 15,-19.60556 15,-6.16845 15,3.06279 15,9.45058 15,6.53131 15,6.72933 15,3.44294 15,7.0498 15,11.01311 15,7.65781 15,7.93137 15,8.22508 15,0 15,17.42482 15,-8.8833 15,-24.69797 15,-42.4243 15,-51.47222 15,7.7921 15,40.48492 15,26.94858 15,-39.28809 15,-62.37496 15,-59.30221 15,-21.47909 15,-6.21156 15,10.98706 15,3.24185 15,1.63905 15,13.56477 15,10.74665 15,13.23245 15,26.88581 15,35.70019 15,27.44882 15,-14.14838 15,-18.40541 15,0 15,23.95708 15,53.80644 15,26.6023 15,-11.79332 15,-28.69184 15,-39.92358 15,-31.40076 15,-31.77595 15,-12.33951 15,-9.78359 15,-5.66987 15,9.53157 15,9.95934 15,6.19711 15,-2.08433 15,-6.14003 15,-2.00854 15,-5.92189 15,40.48516 15,49.54966 15,97.46192 15,29.00449 15,-95.13955 15,-25.40522 15,-11.68957 15,0 15,-5.62179 15,-16.0591 15,-12.54866 15,20.4329 15,47.55224 15,-42.13605 15,-25.84909 15,4.93467 15,-9.76227 15,0 15,0 15,7.2812 15,10.09506 15,13.30043 15,8.38046"
       id="path4136"
       inkscape:connector-curvature="0" />
    <path
       style="fill:none;fill-rule:evenodd;stroke:#000000;stroke-width:3;stroke-linecap:butt;stroke-linejoin:miter;stroke-miterlimit:4;stroke-dasharray:none;stroke-opacity:1"
       d="m -18.571429,544.22052 0,0 321.857739,0 321.85772,0 321.85777,0 321.8578,0 321.8577,0"
       id="path4136-4"
       inkscape:connector-curvature="0"
       sodipodi:nodetypes="ccccccc" />
    <text
       xml:space="preserve"
       style="font-style:normal;font-weight:normal;font-size:33.75px;line-height:125%;font-family:sans-serif;letter-spacing:0px;word-spacing:0px;fill:#000000;fill-opacity:1;stroke:none;stroke-width:1px;stroke-linecap:butt;stroke-linejoin:miter;stroke-opacity:1"
       x="-54.611359"
       y="540.56274"
       id="text4153"
       sodipodi:linespacing="125%"
       transform="scale(0.97130936,1.0295381)"><tspan
         sodipodi:role="line"
         id="tspan4155"
         x="-54.611359"
         y="540.56274">4</tspan></text>
    <path
       style="fill:none;fill-rule:evenodd;stroke:#000000;stroke-width:3.00000024;stroke-linecap:butt;stroke-linejoin:miter;stroke-miterlimit:4;stroke-dasharray:none;stroke-opacity:1"
       d="m -21.781798,300.26957 2.978975,0 2.978975,0 2.978975,0 2.9789751,0 2.9789753,0 2.9789749,0 2.97897525,0 2.97897495,0 2.9789752,0"
       id="path4136-3"
       inkscape:connector-curvature="0"
       sodipodi:nodetypes="cccccccccc" />
    <path
       style="fill:none;fill-rule:evenodd;stroke:#000000;stroke-width:3;stroke-linecap:butt;stroke-linejoin:miter;stroke-miterlimit:4;stroke-dasharray:none;stroke-opacity:1"
       d="m -12.025407,390.30461 319.119367,0 319.11937,0 319.11936,0 319.11941,0 319.1193,0"
       id="path4136-4-8"
       inkscape:connector-curvature="0"
       sodipodi:nodetypes="cccccc" />
    <path
       style="fill:none;fill-rule:evenodd;stroke:#000000;stroke-width:2.99999976;stroke-linecap:butt;stroke-linejoin:miter;stroke-miterlimit:4;stroke-dasharray:none;stroke-opacity:1"
       d="m -21.0968,608.10026 0,0 7.948043,0 7.9480454,0 7.9480428,0 7.9480438,0"
       id="path4136-3-4"
       inkscape:connector-curvature="0"
       sodipodi:nodetypes="cccccc" />
    <path
       style="fill:none;fill-rule:evenodd;stroke:#000000;stroke-width:3.00000024;stroke-linecap:butt;stroke-linejoin:miter;stroke-miterlimit:4;stroke-dasharray:none;stroke-opacity:1"
       d="m -21.134083,236.76144 5.253029,0 5.253029,0 5.253028,0 5.25303066,0 5.25302864,0"
       id="path4136-4-8-0"
       inkscape:connector-curvature="0"
       sodipodi:nodetypes="cccccc" />
    <path
       style="fill:none;fill-rule:evenodd;stroke:#000000;stroke-width:3.00000024;stroke-linecap:butt;stroke-linejoin:miter;stroke-miterlimit:4;stroke-dasharray:none;stroke-opacity:1"
       d="m -21.171366,698.7739 0,0 5.956077,0 5.9560756,0 5.9560768,0 5.9560761,0 5.9560765,0"
       id="path4136-4-4"
       inkscape:connector-curvature="0"
       sodipodi:nodetypes="ccccccc" />
    <text
       xml:space="preserve"
       style="font-style:normal;font-weight:normal;font-size:33.75px;line-height:125%;font-family:sans-serif;letter-spacing:0px;word-spacing:0px;fill:#000000;fill-opacity:1;stroke:none;stroke-width:1px;stroke-linecap:butt;stroke-linejoin:miter;stroke-opacity:1"
       x="-50.451397"
       y="691.66296"
       id="text4153-4"
       sodipodi:linespacing="125%"
       transform="scale(0.97130936,1.0295381)"><tspan
         sodipodi:role="line"
         id="tspan4155-9"
         x="-50.451397"
         y="691.66296">2</tspan></text>
    <path
       style="fill:none;fill-rule:evenodd;stroke:#000000;stroke-width:2.99999976;stroke-linecap:butt;stroke-linejoin:miter;stroke-miterlimit:4;stroke-dasharray:none;stroke-opacity:1"
       d="m -21.0968,761.64345 0,0 7.948043,0 7.948045,0 7.948043,0 7.948044,0"
       id="path4136-3-4-4"
       inkscape:connector-curvature="0"
       sodipodi:nodetypes="cccccc" />
    <text
       xml:space="preserve"
       style="font-style:normal;font-weight:normal;font-size:33.75px;line-height:125%;font-family:sans-serif;letter-spacing:0px;word-spacing:0px;fill:#000000;fill-opacity:1;stroke:none;stroke-width:1px;stroke-linecap:butt;stroke-linejoin:miter;stroke-opacity:1"
       x="-84.697174"
       y="750.5332"
       id="text4153-4-1-3"
       sodipodi:linespacing="125%"
       transform="scale(0.97130936,1.0295381)"><tspan
         sodipodi:role="line"
         id="tspan4155-9-0-4"
         x="-84.697174"
         y="750.5332">1.5</tspan></text>
    <path
       style="fill:none;fill-rule:evenodd;stroke:#000000;stroke-width:2.99999976;stroke-linecap:butt;stroke-linejoin:miter;stroke-miterlimit:4;stroke-dasharray:none;stroke-opacity:1"
       d="m -21.0968,453.81455 0,0 7.948043,0 7.948045,0 7.948043,0 7.948044,0"
       id="path4136-3-4-48"
       inkscape:connector-curvature="0"
       sodipodi:nodetypes="cccccc" />
    <text
       xml:space="preserve"
       style="font-style:normal;font-weight:normal;font-size:33.75px;line-height:125%;font-family:sans-serif;letter-spacing:0px;word-spacing:0px;fill:#000000;fill-opacity:1;stroke:none;stroke-width:1px;stroke-linecap:butt;stroke-linejoin:miter;stroke-opacity:1"
       x="-51.491386"
       y="455.2009"
       id="text4153-3"
       sodipodi:linespacing="125%"
       transform="scale(0.97130936,1.0295381)"><tspan
         sodipodi:role="line"
         id="tspan4155-95"
         x="-51.491386"
         y="455.2009">6</tspan></text>
    <text
       xml:space="preserve"
       style="font-style:normal;font-weight:normal;font-size:33.75px;line-height:125%;font-family:sans-serif;letter-spacing:0px;word-spacing:0px;fill:#000000;fill-opacity:1;stroke:none;stroke-width:1px;stroke-linecap:butt;stroke-linejoin:miter;stroke-opacity:1"
       x="-52.531376"
       y="608.75403"
       id="text4153-4-9"
       sodipodi:linespacing="125%"
       transform="scale(0.97130936,1.0295381)"><tspan
         sodipodi:role="line"
         id="tspan4155-9-7"
         x="-52.531376"
         y="608.75403">3</tspan></text>
    <text
       xml:space="preserve"
       style="font-style:normal;font-weight:normal;font-size:33.75px;line-height:125%;font-family:sans-serif;letter-spacing:0px;word-spacing:0px;fill:#000000;fill-opacity:1;stroke:none;stroke-width:1px;stroke-linecap:butt;stroke-linejoin:miter;stroke-opacity:1"
       x="-51.491386"
       y="389.95306"
       id="text4153-3-5"
       sodipodi:linespacing="125%"
       transform="scale(0.97130936,1.0295381)"><tspan
         sodipodi:role="line"
         id="tspan4155-95-1"
         x="-51.491386"
         y="389.95306">8</tspan></text>
    <text
       xml:space="preserve"
       style="font-style:normal;font-weight:normal;font-size:33.75px;line-height:125%;font-family:sans-serif;letter-spacing:0px;word-spacing:0px;fill:#000000;fill-opacity:1;stroke:none;stroke-width:1px;stroke-linecap:butt;stroke-linejoin:miter;stroke-opacity:1"
       x="-75.931168"
       y="308.02536"
       id="text4153-3-5-2"
       sodipodi:linespacing="125%"
       transform="scale(0.97130936,1.0295381)"><tspan
         sodipodi:role="line"
         id="tspan4155-95-1-8"
         x="-75.931168"
         y="308.02536">12</tspan></text>
    <text
       xml:space="preserve"
       style="font-style:normal;font-weight:normal;font-size:33.75px;line-height:125%;font-family:sans-serif;letter-spacing:0px;word-spacing:0px;fill:#000000;fill-opacity:1;stroke:none;stroke-width:1px;stroke-linecap:butt;stroke-linejoin:miter;stroke-opacity:1"
       x="-74.891174"
       y="255.53273"
       id="text4153-3-5-2-7"
       sodipodi:linespacing="125%"
       transform="scale(0.97130936,1.0295381)"><tspan
         sodipodi:role="line"
         id="tspan4155-95-1-8-1"
         x="-74.891174"
         y="255.53273">16</tspan></text>
    <path
       style="fill:none;fill-rule:evenodd;stroke:#000000;stroke-width:2.99999976;stroke-linecap:butt;stroke-linejoin:miter;stroke-miterlimit:4;stroke-dasharray:none;stroke-opacity:1"
       d="m -21.0968,209.09 0,0 7.94804,0 7.94804,0 7.94805,0 7.948041,0"
       id="path4136-3-4-1"
       inkscape:connector-curvature="0"
       sodipodi:nodetypes="cccccc" />
    <text
       xml:space="preserve"
       style="font-style:normal;font-weight:normal;font-size:33.75px;line-height:125%;font-family:sans-serif;letter-spacing:0px;word-spacing:0px;fill:#000000;fill-opacity:1;stroke:none;stroke-width:1px;stroke-linecap:butt;stroke-linejoin:miter;stroke-opacity:1"
       x="-75.931168"
       y="217.26707"
       id="text4153-3-5-2-7-7"
       sodipodi:linespacing="125%"
       transform="scale(0.97130936,1.0295381)"><tspan
         sodipodi:role="line"
         id="tspan4155-95-1-8-1-6"
         x="-75.931168"
         y="217.26707">18</tspan></text>
    <path
       style="fill:none;fill-rule:evenodd;stroke:#000000;stroke-width:2.99999976;stroke-linecap:butt;stroke-linejoin:miter;stroke-miterlimit:4;stroke-dasharray:none;stroke-opacity:1"
       d="m -21.0968,363.81455 0,0 7.94804,0 7.94804,0 7.94805,0 7.948041,0"
       id="path4136-3-4-6"
       inkscape:connector-curvature="0"
       sodipodi:nodetypes="cccccc" />
    <text
       xml:space="preserve"
       style="font-style:normal;font-weight:normal;font-size:33.75px;line-height:125%;font-family:sans-serif;letter-spacing:0px;word-spacing:0px;fill:#000000;fill-opacity:1;stroke:none;stroke-width:1px;stroke-linecap:butt;stroke-linejoin:miter;stroke-opacity:1"
       x="-51.491386"
       y="361.00854"
       id="text4153-3-5-8"
       sodipodi:linespacing="125%"
       transform="scale(0.97130936,1.0295381)"><tspan
         sodipodi:role="line"
         id="tspan4155-95-1-4"
         x="-51.491386"
         y="361.00854">9</tspan></text>
  </g>
</svg>
