<?xml version="1.0" encoding="UTF-8" standalone="no"?>
<!-- Created with Inkscape (http://www.inkscape.org/) -->

<svg
   xmlns:dc="http://purl.org/dc/elements/1.1/"
   xmlns:cc="http://creativecommons.org/ns#"
   xmlns:rdf="http://www.w3.org/1999/02/22-rdf-syntax-ns#"
   xmlns:svg="http://www.w3.org/2000/svg"
   xmlns="http://www.w3.org/2000/svg"
   xmlns:sodipodi="http://sodipodi.sourceforge.net/DTD/sodipodi-0.dtd"
   xmlns:inkscape="http://www.inkscape.org/namespaces/inkscape"
   width="23.521357"
   height="82.497841"
   viewBox="0 0 23.521358 82.497848"
   id="svg2"
   version="1.1"
   inkscape:version="0.91 r13725"
   sodipodi:docname="arrowRight.svg">
  <defs
     id="defs4" />
  <sodipodi:namedview
     id="base"
     pagecolor="#ffffff"
     bordercolor="#666666"
     borderopacity="1.0"
     inkscape:pageopacity="0.0"
     inkscape:pageshadow="2"
     inkscape:zoom="3.959798"
     inkscape:cx="-4.5085145"
     inkscape:cy="32.066695"
     inkscape:document-units="px"
     inkscape:current-layer="layer1"
     showgrid="false"
     fit-margin-top="0"
     fit-margin-left="0"
     fit-margin-right="0"
     fit-margin-bottom="0"
     inkscape:window-width="1920"
     inkscape:window-height="1058"
     inkscape:window-x="1912"
     inkscape:window-y="-8"
     inkscape:window-maximized="1"
     units="px" />
  <metadata
     id="metadata7">
    <rdf:RDF>
      <cc:Work
         rdf:about="">
        <dc:format>image/svg+xml</dc:format>
        <dc:type
           rdf:resource="http://purl.org/dc/dcmitype/StillImage" />
        <dc:title></dc:title>
      </cc:Work>
    </rdf:RDF>
  </metadata>
  <g
     inkscape:label="Ebene 1"
     inkscape:groupmode="layer"
     id="layer1"
     transform="translate(-220.59985,-427.44528)">
    <path
       inkscape:connector-curvature="0"
       style="opacity:1;fill:#000000;fill-opacity:1;stroke:none;stroke-width:0.35433072;stroke-miterlimit:4;stroke-dasharray:none;stroke-opacity:1"
       d="m 230.82523,427.45056 c 0.76802,0.0608 1.46439,0.64576 1.73128,1.5512 l 11.4639,38.89129 c 0.0629,0.21343 0.088,0.42909 0.0968,0.64325 0.004,0.0525 0.003,0.10508 0.004,0.1581 -7.9e-4,0.053 1.9e-4,0.1057 -0.004,0.1581 -0.009,0.21398 -0.0339,0.42999 -0.0968,0.64325 l -11.4639,38.89128 c -0.35585,1.20727 -1.47477,1.84446 -2.50943,1.42925 l -8.11362,-3.256 c -1.03466,-0.41521 -1.58075,-1.72079 -1.2249,-2.92805 l 10.29785,-34.93783 -10.29785,-34.93783 c -0.35585,-1.20726 0.19024,-2.51374 1.2249,-2.92895 l 8.11285,-3.256 c 0.25866,-0.10381 0.52291,-0.14132 0.77892,-0.12106 z"
       id="rect4136-6" />
  </g>
</svg>
