<?xml version="1.0" encoding="UTF-8" standalone="no"?>
<!-- Created with Inkscape (http://www.inkscape.org/) -->

<svg
   xmlns:dc="http://purl.org/dc/elements/1.1/"
   xmlns:cc="http://creativecommons.org/ns#"
   xmlns:rdf="http://www.w3.org/1999/02/22-rdf-syntax-ns#"
   xmlns:svg="http://www.w3.org/2000/svg"
   xmlns="http://www.w3.org/2000/svg"
   xmlns:sodipodi="http://sodipodi.sourceforge.net/DTD/sodipodi-0.dtd"
   xmlns:inkscape="http://www.inkscape.org/namespaces/inkscape"
   width="7.1321225mm"
   height="8.1509686mm"
   viewBox="0 0 25.2713 28.881385"
   id="svg5317"
   version="1.1"
   inkscape:version="0.91 r13725"
   sodipodi:docname="carbs.svg">
  <defs
     id="defs5319" />
  <sodipodi:namedview
     id="base"
     pagecolor="#ffffff"
     bordercolor="#666666"
     borderopacity="1.0"
     inkscape:pageopacity="0.0"
     inkscape:pageshadow="2"
     inkscape:zoom="2.8"
     inkscape:cx="40.478573"
     inkscape:cy="-13.837212"
     inkscape:document-units="px"
     inkscape:current-layer="layer1"
     showgrid="false"
     fit-margin-top="0"
     fit-margin-left="0"
     fit-margin-right="0"
     fit-margin-bottom="0"
     inkscape:window-width="1920"
     inkscape:window-height="1058"
     inkscape:window-x="1912"
     inkscape:window-y="-8"
     inkscape:window-maximized="1" />
  <metadata
     id="metadata5322">
    <rdf:RDF>
      <cc:Work
         rdf:about="">
        <dc:format>image/svg+xml</dc:format>
        <dc:type
           rdf:resource="http://purl.org/dc/dcmitype/StillImage" />
        <dc:title></dc:title>
      </cc:Work>
    </rdf:RDF>
  </metadata>
  <g
     inkscape:label="Ebene 1"
     inkscape:groupmode="layer"
     id="layer1"
     transform="translate(-247.3645,-332.20723)">
    <path
       style="fill:#dc6b00;fill-opacity:1"
       inkscape:connector-curvature="0"
       d="m 260.00013,341.15667 c -2.38475,-2.43786 -12.63563,-4.0067 -12.63563,7.56893 0,7.15163 9.05466,15.06937 12.63364,11.4619 l 0.004,0 c 3.57905,3.60747 12.63366,-4.31027 12.63366,-11.4619 0,-11.57558 -10.25088,-10.00679 -12.63563,-7.56893 z m 9.05657,10.30011 c -0.67945,2.61754 -2.92802,5.05084 -5.57005,6.7703 2.76139,-3.28773 4.46347,-8.85334 2.81753,-13.16949 -0.4901,-1.28516 -1.05193,-2.37385 -1.66605,-3.28975 3.24464,1.08781 5.91866,3.9096 4.41857,9.68894 z m -9.94999,-13.49427 c 0.38454,-0.0917 0.74963,-0.21184 1.09723,-0.35287 -0.12643,0.58289 -0.20381,1.19717 -0.20381,1.81795 l 0.60188,0 c 0.52381,-2.44668 2.4927,-5.30247 5.11782,-5.30247 0,-1.34437 -0.9119,-1.91789 -1.93793,-1.91789 -0.97645,0.48413 -1.82867,1.35233 -2.51703,2.5786 -0.37169,0.66219 -0.75943,1.57011 -1.00606,2.58646 -0.0492,-0.28695 -0.12268,-0.57486 -0.22467,-0.86176 -1.11381,-3.13242 -4.99559,-4.96074 -8.67025,-4.08363 -0.41607,0.0993 -0.81047,0.23042 -1.18329,0.38703 0.0466,0.3541 0.12981,0.71025 0.25594,1.06486 1.11373,3.13251 4.99552,4.96081 8.67017,4.08372 z"
       id="path4322" />
  </g>
</svg>
