<?xml version="1.0" encoding="UTF-8" standalone="no"?>
<!-- Created with Inkscape (http://www.inkscape.org/) -->

<svg
   xmlns:dc="http://purl.org/dc/elements/1.1/"
   xmlns:cc="http://creativecommons.org/ns#"
   xmlns:rdf="http://www.w3.org/1999/02/22-rdf-syntax-ns#"
   xmlns:svg="http://www.w3.org/2000/svg"
   xmlns="http://www.w3.org/2000/svg"
   xmlns:sodipodi="http://sodipodi.sourceforge.net/DTD/sodipodi-0.dtd"
   xmlns:inkscape="http://www.inkscape.org/namespaces/inkscape"
   width="8.8266697mm"
   height="8.8266697mm"
   viewBox="0 0 31.275601 31.275601"
   id="svg6497"
   version="1.1"
   inkscape:version="0.91 r13725"
   sodipodi:docname="clock.svg">
  <defs
     id="defs6499" />
  <sodipodi:namedview
     id="base"
     pagecolor="#ffffff"
     bordercolor="#666666"
     borderopacity="1.0"
     inkscape:pageopacity="0.0"
     inkscape:pageshadow="2"
     inkscape:zoom="1.979899"
     inkscape:cx="131.66792"
     inkscape:cy="8.9816476"
     inkscape:document-units="px"
     inkscape:current-layer="layer1"
     showgrid="false"
     fit-margin-top="0"
     fit-margin-left="0"
     fit-margin-right="0"
     fit-margin-bottom="0"
     inkscape:window-width="1920"
     inkscape:window-height="1058"
     inkscape:window-x="1912"
     inkscape:window-y="-8"
     inkscape:window-maximized="1" />
  <metadata
     id="metadata6502">
    <rdf:RDF>
      <cc:Work
         rdf:about="">
        <dc:format>image/svg+xml</dc:format>
        <dc:type
           rdf:resource="http://purl.org/dc/dcmitype/StillImage" />
        <dc:title></dc:title>
      </cc:Work>
    </rdf:RDF>
  </metadata>
  <g
     inkscape:label="Ebene 1"
     inkscape:groupmode="layer"
     id="layer1"
     transform="translate(1341.3521,-871.01012)">
    <path
       id="path4675"
       d="m -1325.7219,871.01012 c -8.6401,0 -15.6302,6.9981 -15.6302,15.6378 0,8.6399 6.9901,15.6378 15.6302,15.6378 8.6397,0 15.6454,-6.9979 15.6454,-15.6378 0,-8.6397 -7.0057,-15.6378 -15.6454,-15.6378 z m 0.01,28.1481 c -6.9118,0 -12.5103,-5.5985 -12.5103,-12.5103 0,-6.9118 5.5985,-12.5103 12.5103,-12.5103 6.9118,0 12.5102,5.5985 12.5102,12.5103 0,6.9118 -5.5984,12.5103 -12.5102,12.5103 z m 0.7819,-20.3292 -2.3457,0 0,9.3827 8.2021,4.9258 1.1806,-1.9235 -7.037,-4.1751 0,-8.2099 z"
       inkscape:connector-curvature="0"
       style="fill-opacity:0.9" />
  </g>
</svg>
