<?xml version="1.0" encoding="UTF-8" standalone="no"?>
<!-- Created with Inkscape (http://www.inkscape.org/) -->

<svg
   xmlns:dc="http://purl.org/dc/elements/1.1/"
   xmlns:cc="http://creativecommons.org/ns#"
   xmlns:rdf="http://www.w3.org/1999/02/22-rdf-syntax-ns#"
   xmlns:svg="http://www.w3.org/2000/svg"
   xmlns="http://www.w3.org/2000/svg"
   xmlns:sodipodi="http://sodipodi.sourceforge.net/DTD/sodipodi-0.dtd"
   xmlns:inkscape="http://www.inkscape.org/namespaces/inkscape"
   width="8.1429529mm"
   height="9.1551371mm"
   viewBox="0 0 28.852983 32.439462"
   id="svg5898"
   version="1.1"
   inkscape:version="0.91 r13725"
   sodipodi:docname="insulin.svg">
  <defs
     id="defs5900" />
  <sodipodi:namedview
     id="base"
     pagecolor="#ffffff"
     bordercolor="#666666"
     borderopacity="1.0"
     inkscape:pageopacity="0.0"
     inkscape:pageshadow="2"
     inkscape:zoom="11.2"
     inkscape:cx="-0.151054"
     inkscape:cy="27.10639"
     inkscape:document-units="px"
     inkscape:current-layer="layer1"
     showgrid="false"
     fit-margin-top="0"
     fit-margin-left="0"
     fit-margin-right="0"
     fit-margin-bottom="0"
     inkscape:window-width="1920"
     inkscape:window-height="1058"
     inkscape:window-x="1912"
     inkscape:window-y="-8"
     inkscape:window-maximized="1" />
  <metadata
     id="metadata5903">
    <rdf:RDF>
      <cc:Work
         rdf:about="">
        <dc:format>image/svg+xml</dc:format>
        <dc:type
           rdf:resource="http://purl.org/dc/dcmitype/StillImage" />
        <dc:title></dc:title>
      </cc:Work>
    </rdf:RDF>
  </metadata>
  <g
     inkscape:label="Ebene 1"
     inkscape:groupmode="layer"
     id="layer1"
     transform="translate(62.997919,-404.7139)">
    <g
       id="g4455"
       transform="matrix(0.12493872,0,0,0.12493872,-64.915426,399.9891)"
       style="fill:#2a9274;fill-opacity:1">
      <g
         id="g4413"
         style="fill:#2a9274;fill-opacity:1">
        <g
           id="g4415"
           style="fill:#2a9274;fill-opacity:1">
          <path
             id="path4417"
             d="M 246.28465,37.816973 220.759,66.764 c -3.484,-2.201 -8.14,-1.639 -10.957,1.559 L 195.023,85.09 c -6.203,-1.406 -12.945,0.451 -17.444,5.559 L 65.008,218.315 54.742,209.264 c -2.128,-1.869 -5.367,-1.673 -7.244,0.455 -1.872,2.123 -1.665,5.375 0.456,7.25 l 16.682,14.705 -33.383,37.857 -7.382,-6.504 c -2.125,-1.879 -5.364,-1.683 -7.241,0.451 -1.872,2.123 -1.673,5.364 0.456,7.244 l 28.865,25.461 c 2.125,1.869 5.373,1.662 7.244,-0.461 1.877,-2.123 1.67,-5.37 -0.458,-7.244 l -7.379,-6.509 33.378,-37.853 16.681,14.706 c 2.125,1.874 5.37,1.667 7.242,-0.456 1.877,-2.133 1.672,-5.369 -0.456,-7.238 L 91.943,242.076 204.51,114.412 c 4.505,-5.108 5.499,-12.031 3.34,-18.007 l 14.789,-16.772 c 2.641,-3.008 2.775,-7.35 0.591,-10.509 L 245.66375,43.689487 Z M 199.388,109.891 l -56.851,64.473 -3.593,-3.175 54.593,-61.915 c 0.932,-1.067 0.838,-2.682 -0.229,-3.622 -1.062,-0.943 -2.682,-0.832 -3.625,0.233 l -54.59,61.918 -9.243,-8.15 56.854,-64.479 c 4.06,-4.601 11.086,-5.041 15.694,-0.979 4.615,4.055 5.056,11.082 0.99,15.696 z"
             inkscape:connector-curvature="0"
             sodipodi:nodetypes="cccccccccccccccccccccccccccccccccccccccc"
             style="fill:#2a9274;fill-opacity:1" />
        </g>
      </g>
      <g
         id="g4419"
         style="fill:#2a9274;fill-opacity:1" />
      <g
         id="g4421"
         style="fill:#2a9274;fill-opacity:1" />
      <g
         id="g4423"
         style="fill:#2a9274;fill-opacity:1" />
      <g
         id="g4425"
         style="fill:#2a9274;fill-opacity:1" />
      <g
         id="g4427"
         style="fill:#2a9274;fill-opacity:1" />
      <g
         id="g4429"
         style="fill:#2a9274;fill-opacity:1" />
      <g
         id="g4431"
         style="fill:#2a9274;fill-opacity:1" />
      <g
         id="g4433"
         style="fill:#2a9274;fill-opacity:1" />
      <g
         id="g4435"
         style="fill:#2a9274;fill-opacity:1" />
      <g
         id="g4437"
         style="fill:#2a9274;fill-opacity:1" />
      <g
         id="g4439"
         style="fill:#2a9274;fill-opacity:1" />
      <g
         id="g4441"
         style="fill:#2a9274;fill-opacity:1" />
      <g
         id="g4443"
         style="fill:#2a9274;fill-opacity:1" />
      <g
         id="g4445"
         style="fill:#2a9274;fill-opacity:1" />
      <g
         id="g4447"
         style="fill:#2a9274;fill-opacity:1" />
    </g>
  </g>
</svg>
